<mxfile host="app.diagrams.net" agent="Mozilla/5.0 (X11; Linux x86_64) AppleWebKit/537.36 (KHTML, like Gecko) Chrome/132.0.0.0 Safari/537.36 OPR/117.0.0.0" version="26.0.16">
  <diagram name="Page-1" id="ycRu8Dl1TrBNxJkZjVXF">
    <mxGraphModel dx="2569" dy="579" grid="1" gridSize="10" guides="1" tooltips="1" connect="1" arrows="1" fold="1" page="1" pageScale="1" pageWidth="1169" pageHeight="827" math="0" shadow="0">
      <root>
        <mxCell id="0" />
        <mxCell id="1" parent="0" />
        <mxCell id="KG3uTl3x-kGDV18g8xJJ-138" value="&lt;span style=&quot;font-size: 11px; text-align: left; text-wrap-mode: nowrap;&quot;&gt;class_id&lt;/span&gt;" style="ellipse;whiteSpace=wrap;html=1;fillColor=light-dark(#FF9999,var(--ge-dark-color, #121212));" vertex="1" parent="1">
          <mxGeometry x="200" y="140" width="90" height="45" as="geometry" />
        </mxCell>
        <mxCell id="KG3uTl3x-kGDV18g8xJJ-139" value="&lt;span style=&quot;font-size: 11px; text-align: left; text-wrap-mode: nowrap;&quot;&gt;class_name&lt;/span&gt;" style="ellipse;whiteSpace=wrap;html=1;fillColor=light-dark(#FF9999,var(--ge-dark-color, #121212));" vertex="1" parent="1">
          <mxGeometry x="-10" y="237.5" width="90" height="45" as="geometry" />
        </mxCell>
        <mxCell id="KG3uTl3x-kGDV18g8xJJ-141" value="&lt;span style=&quot;font-size: 11px; text-align: left; text-wrap-mode: nowrap;&quot;&gt;description&lt;/span&gt;" style="ellipse;whiteSpace=wrap;html=1;fillColor=light-dark(#FF9999,var(--ge-dark-color, #121212));" vertex="1" parent="1">
          <mxGeometry x="80" y="145" width="90" height="45" as="geometry" />
        </mxCell>
        <mxCell id="KG3uTl3x-kGDV18g8xJJ-164" style="edgeStyle=orthogonalEdgeStyle;rounded=0;orthogonalLoop=1;jettySize=auto;html=1;exitX=1;exitY=0.5;exitDx=0;exitDy=0;entryX=0.5;entryY=1;entryDx=0;entryDy=0;" edge="1" parent="1" source="KG3uTl3x-kGDV18g8xJJ-144" target="KG3uTl3x-kGDV18g8xJJ-152">
          <mxGeometry relative="1" as="geometry">
            <mxPoint x="625" y="212.5" as="targetPoint" />
            <Array as="points">
              <mxPoint x="700" y="238" />
            </Array>
          </mxGeometry>
        </mxCell>
        <mxCell id="KG3uTl3x-kGDV18g8xJJ-184" style="edgeStyle=orthogonalEdgeStyle;rounded=0;orthogonalLoop=1;jettySize=auto;html=1;exitX=0.5;exitY=1;exitDx=0;exitDy=0;entryX=0;entryY=0.5;entryDx=0;entryDy=0;" edge="1" parent="1" source="KG3uTl3x-kGDV18g8xJJ-144" target="KG3uTl3x-kGDV18g8xJJ-183">
          <mxGeometry relative="1" as="geometry" />
        </mxCell>
        <mxCell id="KG3uTl3x-kGDV18g8xJJ-225" style="edgeStyle=orthogonalEdgeStyle;rounded=0;orthogonalLoop=1;jettySize=auto;html=1;exitX=0.5;exitY=0;exitDx=0;exitDy=0;entryX=0.5;entryY=1;entryDx=0;entryDy=0;" edge="1" parent="1" source="KG3uTl3x-kGDV18g8xJJ-144" target="KG3uTl3x-kGDV18g8xJJ-153">
          <mxGeometry relative="1" as="geometry" />
        </mxCell>
        <mxCell id="KG3uTl3x-kGDV18g8xJJ-229" style="edgeStyle=orthogonalEdgeStyle;rounded=0;orthogonalLoop=1;jettySize=auto;html=1;exitX=0.5;exitY=0;exitDx=0;exitDy=0;entryX=0.5;entryY=1;entryDx=0;entryDy=0;" edge="1" parent="1" source="KG3uTl3x-kGDV18g8xJJ-144" target="KG3uTl3x-kGDV18g8xJJ-147">
          <mxGeometry relative="1" as="geometry" />
        </mxCell>
        <mxCell id="KG3uTl3x-kGDV18g8xJJ-230" style="edgeStyle=orthogonalEdgeStyle;rounded=0;orthogonalLoop=1;jettySize=auto;html=1;exitX=1;exitY=0.5;exitDx=0;exitDy=0;entryX=0.5;entryY=0;entryDx=0;entryDy=0;" edge="1" parent="1" source="KG3uTl3x-kGDV18g8xJJ-144" target="KG3uTl3x-kGDV18g8xJJ-150">
          <mxGeometry relative="1" as="geometry" />
        </mxCell>
        <mxCell id="KG3uTl3x-kGDV18g8xJJ-232" style="edgeStyle=orthogonalEdgeStyle;rounded=0;orthogonalLoop=1;jettySize=auto;html=1;exitX=0.5;exitY=0;exitDx=0;exitDy=0;entryX=0.5;entryY=1;entryDx=0;entryDy=0;" edge="1" parent="1" source="KG3uTl3x-kGDV18g8xJJ-144" target="KG3uTl3x-kGDV18g8xJJ-151">
          <mxGeometry relative="1" as="geometry" />
        </mxCell>
        <mxCell id="KG3uTl3x-kGDV18g8xJJ-242" style="edgeStyle=orthogonalEdgeStyle;rounded=0;orthogonalLoop=1;jettySize=auto;html=1;exitX=0.5;exitY=1;exitDx=0;exitDy=0;entryX=1;entryY=0.5;entryDx=0;entryDy=0;" edge="1" parent="1" source="KG3uTl3x-kGDV18g8xJJ-144" target="KG3uTl3x-kGDV18g8xJJ-206">
          <mxGeometry relative="1" as="geometry">
            <Array as="points">
              <mxPoint x="505" y="365" />
            </Array>
          </mxGeometry>
        </mxCell>
        <mxCell id="KG3uTl3x-kGDV18g8xJJ-246" style="edgeStyle=orthogonalEdgeStyle;rounded=0;orthogonalLoop=1;jettySize=auto;html=1;exitX=0;exitY=0.5;exitDx=0;exitDy=0;entryX=0.5;entryY=0;entryDx=0;entryDy=0;" edge="1" parent="1" source="KG3uTl3x-kGDV18g8xJJ-144" target="KG3uTl3x-kGDV18g8xJJ-154">
          <mxGeometry relative="1" as="geometry" />
        </mxCell>
        <mxCell id="KG3uTl3x-kGDV18g8xJJ-144" value="&lt;span style=&quot;font-weight: 700; text-wrap-mode: nowrap;&quot;&gt;weapons&lt;/span&gt;" style="rounded=0;whiteSpace=wrap;html=1;fillColor=light-dark(#FFFF99,var(--ge-dark-color, #121212));" vertex="1" parent="1">
          <mxGeometry x="445" y="205" width="120" height="60" as="geometry" />
        </mxCell>
        <mxCell id="KG3uTl3x-kGDV18g8xJJ-157" value="" style="edgeStyle=orthogonalEdgeStyle;rounded=0;orthogonalLoop=1;jettySize=auto;html=1;" edge="1" parent="1" source="KG3uTl3x-kGDV18g8xJJ-145" target="KG3uTl3x-kGDV18g8xJJ-138">
          <mxGeometry relative="1" as="geometry" />
        </mxCell>
        <mxCell id="KG3uTl3x-kGDV18g8xJJ-218" style="edgeStyle=orthogonalEdgeStyle;rounded=0;orthogonalLoop=1;jettySize=auto;html=1;exitX=0;exitY=0.5;exitDx=0;exitDy=0;entryX=1;entryY=0.5;entryDx=0;entryDy=0;" edge="1" parent="1" source="KG3uTl3x-kGDV18g8xJJ-145" target="KG3uTl3x-kGDV18g8xJJ-139">
          <mxGeometry relative="1" as="geometry" />
        </mxCell>
        <mxCell id="KG3uTl3x-kGDV18g8xJJ-226" style="edgeStyle=orthogonalEdgeStyle;rounded=0;orthogonalLoop=1;jettySize=auto;html=1;exitX=0.5;exitY=0;exitDx=0;exitDy=0;entryX=0.5;entryY=1;entryDx=0;entryDy=0;" edge="1" parent="1" source="KG3uTl3x-kGDV18g8xJJ-145" target="KG3uTl3x-kGDV18g8xJJ-141">
          <mxGeometry relative="1" as="geometry" />
        </mxCell>
        <mxCell id="KG3uTl3x-kGDV18g8xJJ-145" value="&lt;span style=&quot;font-weight: 700; text-wrap-mode: nowrap;&quot;&gt;weapon_classes&lt;/span&gt;" style="rounded=0;whiteSpace=wrap;html=1;fillColor=light-dark(#FF9999,var(--ge-dark-color, #121212));" vertex="1" parent="1">
          <mxGeometry x="130" y="230" width="120" height="60" as="geometry" />
        </mxCell>
        <mxCell id="KG3uTl3x-kGDV18g8xJJ-147" value="&lt;span style=&quot;font-size: 11px; text-align: left; text-wrap-mode: nowrap;&quot;&gt;weapon_id&lt;/span&gt;" style="ellipse;whiteSpace=wrap;html=1;fillColor=light-dark(#FFFF99,var(--ge-dark-color, #121212));" vertex="1" parent="1">
          <mxGeometry x="565" y="110" width="90" height="45" as="geometry" />
        </mxCell>
        <mxCell id="KG3uTl3x-kGDV18g8xJJ-148" value="&lt;span style=&quot;font-size: 11px; text-align: left; text-wrap-mode: nowrap;&quot;&gt;current weapon&lt;/span&gt;&lt;div&gt;&lt;span style=&quot;font-size: 11px; text-align: left; text-wrap-mode: nowrap;&quot;&gt;count&lt;/span&gt;&lt;/div&gt;" style="ellipse;whiteSpace=wrap;html=1;fillColor=light-dark(#99FFFF,var(--ge-dark-color, #121212));" vertex="1" parent="1">
          <mxGeometry x="80" y="351.5" width="90" height="45" as="geometry" />
        </mxCell>
        <mxCell id="KG3uTl3x-kGDV18g8xJJ-149" value="&lt;span style=&quot;font-size: 11px; text-align: left; text-wrap-mode: nowrap;&quot;&gt;personnel_id&lt;/span&gt;" style="ellipse;whiteSpace=wrap;html=1;fillColor=light-dark(#CCFF99,var(--ge-dark-color, #121212));" vertex="1" parent="1">
          <mxGeometry x="805" y="180" width="90" height="45" as="geometry" />
        </mxCell>
        <mxCell id="KG3uTl3x-kGDV18g8xJJ-150" value="&lt;span style=&quot;font-size: 11px; text-align: left; text-wrap-mode: nowrap;&quot;&gt;manufacturer&lt;/span&gt;" style="ellipse;whiteSpace=wrap;html=1;fillColor=light-dark(#FFFF99,var(--ge-dark-color, #121212));" vertex="1" parent="1">
          <mxGeometry x="600" y="265" width="90" height="45" as="geometry" />
        </mxCell>
        <mxCell id="KG3uTl3x-kGDV18g8xJJ-151" value="&lt;span style=&quot;font-size: 11px; text-align: left; text-wrap-mode: nowrap;&quot;&gt;serial_number&lt;/span&gt;" style="ellipse;whiteSpace=wrap;html=1;fillColor=light-dark(#FFFF99,var(--ge-dark-color, #121212));" vertex="1" parent="1">
          <mxGeometry x="460" y="110" width="90" height="45" as="geometry" />
        </mxCell>
        <mxCell id="KG3uTl3x-kGDV18g8xJJ-152" value="&lt;span style=&quot;font-size: 11px; text-align: left; text-wrap-mode: nowrap;&quot;&gt;class_id&lt;/span&gt;" style="ellipse;whiteSpace=wrap;html=1;fillColor=light-dark(#FFFF99,var(--ge-dark-color, #121212));" vertex="1" parent="1">
          <mxGeometry x="660" y="120" width="90" height="45" as="geometry" />
        </mxCell>
        <mxCell id="KG3uTl3x-kGDV18g8xJJ-153" value="&lt;span style=&quot;font-size: 11px; text-align: left; text-wrap-mode: nowrap;&quot;&gt;name&lt;/span&gt;" style="ellipse;whiteSpace=wrap;html=1;fillColor=light-dark(#FFFF99,var(--ge-dark-color, #121212));" vertex="1" parent="1">
          <mxGeometry x="360" y="110" width="90" height="45" as="geometry" />
        </mxCell>
        <mxCell id="KG3uTl3x-kGDV18g8xJJ-221" style="edgeStyle=orthogonalEdgeStyle;rounded=0;orthogonalLoop=1;jettySize=auto;html=1;exitX=0.5;exitY=1;exitDx=0;exitDy=0;entryX=1;entryY=0.5;entryDx=0;entryDy=0;" edge="1" parent="1" source="KG3uTl3x-kGDV18g8xJJ-154" target="KG3uTl3x-kGDV18g8xJJ-145">
          <mxGeometry relative="1" as="geometry" />
        </mxCell>
        <mxCell id="KG3uTl3x-kGDV18g8xJJ-154" value="classifies" style="rhombus;whiteSpace=wrap;html=1;direction=south;fillColor=light-dark(#9933FF,var(--ge-dark-color, #121212));" vertex="1" parent="1">
          <mxGeometry x="302.5" y="195" width="80" height="80" as="geometry" />
        </mxCell>
        <mxCell id="KG3uTl3x-kGDV18g8xJJ-182" style="edgeStyle=orthogonalEdgeStyle;rounded=0;orthogonalLoop=1;jettySize=auto;html=1;exitX=0.5;exitY=1;exitDx=0;exitDy=0;entryX=0.5;entryY=0;entryDx=0;entryDy=0;" edge="1" parent="1" source="KG3uTl3x-kGDV18g8xJJ-167" target="KG3uTl3x-kGDV18g8xJJ-174">
          <mxGeometry relative="1" as="geometry" />
        </mxCell>
        <mxCell id="KG3uTl3x-kGDV18g8xJJ-189" style="edgeStyle=orthogonalEdgeStyle;rounded=0;orthogonalLoop=1;jettySize=auto;html=1;exitX=0.5;exitY=1;exitDx=0;exitDy=0;entryX=0.5;entryY=0;entryDx=0;entryDy=0;" edge="1" parent="1" source="KG3uTl3x-kGDV18g8xJJ-167" target="KG3uTl3x-kGDV18g8xJJ-187">
          <mxGeometry relative="1" as="geometry" />
        </mxCell>
        <mxCell id="KG3uTl3x-kGDV18g8xJJ-233" style="edgeStyle=orthogonalEdgeStyle;rounded=0;orthogonalLoop=1;jettySize=auto;html=1;exitX=1;exitY=0.5;exitDx=0;exitDy=0;entryX=0;entryY=0.5;entryDx=0;entryDy=0;" edge="1" parent="1" source="KG3uTl3x-kGDV18g8xJJ-167" target="KG3uTl3x-kGDV18g8xJJ-177">
          <mxGeometry relative="1" as="geometry" />
        </mxCell>
        <mxCell id="KG3uTl3x-kGDV18g8xJJ-234" style="edgeStyle=orthogonalEdgeStyle;rounded=0;orthogonalLoop=1;jettySize=auto;html=1;exitX=1;exitY=0.5;exitDx=0;exitDy=0;entryX=0;entryY=0.5;entryDx=0;entryDy=0;" edge="1" parent="1" source="KG3uTl3x-kGDV18g8xJJ-167" target="KG3uTl3x-kGDV18g8xJJ-175">
          <mxGeometry relative="1" as="geometry" />
        </mxCell>
        <mxCell id="KG3uTl3x-kGDV18g8xJJ-239" style="edgeStyle=orthogonalEdgeStyle;rounded=0;orthogonalLoop=1;jettySize=auto;html=1;exitX=1;exitY=0.5;exitDx=0;exitDy=0;entryX=0;entryY=0.5;entryDx=0;entryDy=0;" edge="1" parent="1" source="KG3uTl3x-kGDV18g8xJJ-167" target="KG3uTl3x-kGDV18g8xJJ-176">
          <mxGeometry relative="1" as="geometry">
            <Array as="points">
              <mxPoint x="930" y="280" />
              <mxPoint x="930" y="203" />
            </Array>
          </mxGeometry>
        </mxCell>
        <mxCell id="KG3uTl3x-kGDV18g8xJJ-240" style="edgeStyle=orthogonalEdgeStyle;rounded=0;orthogonalLoop=1;jettySize=auto;html=1;exitX=0.5;exitY=0;exitDx=0;exitDy=0;" edge="1" parent="1" source="KG3uTl3x-kGDV18g8xJJ-167">
          <mxGeometry relative="1" as="geometry">
            <mxPoint x="849.5714285714289" y="230" as="targetPoint" />
          </mxGeometry>
        </mxCell>
        <mxCell id="KG3uTl3x-kGDV18g8xJJ-167" value="&lt;span style=&quot;font-weight: 700; text-wrap-mode: nowrap;&quot;&gt;personnel&lt;/span&gt;" style="rounded=0;whiteSpace=wrap;html=1;fillColor=light-dark(#CCFF99,var(--ge-dark-color, #121212));" vertex="1" parent="1">
          <mxGeometry x="790" y="250" width="120" height="60" as="geometry" />
        </mxCell>
        <mxCell id="KG3uTl3x-kGDV18g8xJJ-169" value="&lt;span style=&quot;font-size: 11px; text-align: left; text-wrap-mode: nowrap;&quot;&gt;storage_id&lt;/span&gt;" style="ellipse;whiteSpace=wrap;html=1;fillColor=light-dark(#9999FF,var(--ge-dark-color, #121212));" vertex="1" parent="1">
          <mxGeometry x="647.5" y="660" width="90" height="45" as="geometry" />
        </mxCell>
        <mxCell id="KG3uTl3x-kGDV18g8xJJ-170" value="&lt;span style=&quot;font-size: 11px; text-align: left; text-wrap-mode: nowrap;&quot;&gt;quantity&lt;/span&gt;" style="ellipse;whiteSpace=wrap;html=1;fillColor=light-dark(#9999FF,var(--ge-dark-color, #121212));strokeColor=light-dark(#9999FF,#FFFFFF);" vertex="1" parent="1">
          <mxGeometry x="567.5" y="454" width="90" height="45" as="geometry" />
        </mxCell>
        <mxCell id="KG3uTl3x-kGDV18g8xJJ-171" value="&lt;span style=&quot;font-size: 11px; text-align: left; text-wrap-mode: nowrap;&quot;&gt;caliber&lt;/span&gt;" style="ellipse;whiteSpace=wrap;html=1;fillColor=light-dark(#9999FF,var(--ge-dark-color, #121212));" vertex="1" parent="1">
          <mxGeometry x="747.5" y="622.5" width="90" height="45" as="geometry" />
        </mxCell>
        <mxCell id="KG3uTl3x-kGDV18g8xJJ-172" value="&lt;span style=&quot;font-size: 11px; text-align: left; text-wrap-mode: nowrap;&quot;&gt;name&lt;/span&gt;" style="ellipse;whiteSpace=wrap;html=1;fillColor=light-dark(#9999FF,var(--ge-dark-color, #121212));" vertex="1" parent="1">
          <mxGeometry x="382.5" y="577.5" width="90" height="45" as="geometry" />
        </mxCell>
        <mxCell id="KG3uTl3x-kGDV18g8xJJ-173" value="&lt;span style=&quot;font-size: 11px; text-align: left; text-wrap-mode: nowrap;&quot;&gt;ammo_id&lt;/span&gt;" style="ellipse;whiteSpace=wrap;html=1;fillColor=light-dark(#9999FF,var(--ge-dark-color, #121212));" vertex="1" parent="1">
          <mxGeometry x="497.5" y="660" width="90" height="45" as="geometry" />
        </mxCell>
        <mxCell id="KG3uTl3x-kGDV18g8xJJ-174" value="&lt;span style=&quot;font-size: 11px; text-align: left; text-wrap-mode: nowrap;&quot;&gt;assigned_location&lt;/span&gt;" style="ellipse;whiteSpace=wrap;html=1;fillColor=light-dark(#CCFF99,var(--ge-dark-color, #121212));" vertex="1" parent="1">
          <mxGeometry x="880" y="351.5" width="90" height="45" as="geometry" />
        </mxCell>
        <mxCell id="KG3uTl3x-kGDV18g8xJJ-175" value="&lt;span style=&quot;font-size: 11px; text-align: left; text-wrap-mode: nowrap;&quot;&gt;service_number&lt;/span&gt;" style="ellipse;whiteSpace=wrap;html=1;fillColor=light-dark(#CCFF99,var(--ge-dark-color, #121212));" vertex="1" parent="1">
          <mxGeometry x="950" y="300" width="90" height="45" as="geometry" />
        </mxCell>
        <mxCell id="KG3uTl3x-kGDV18g8xJJ-176" value="&lt;span style=&quot;font-size: 11px; text-align: left; text-wrap-mode: nowrap;&quot;&gt;rank&lt;/span&gt;" style="ellipse;whiteSpace=wrap;html=1;fillColor=light-dark(#CCFF99,var(--ge-dark-color, #121212));" vertex="1" parent="1">
          <mxGeometry x="940" y="180" width="90" height="45" as="geometry" />
        </mxCell>
        <mxCell id="KG3uTl3x-kGDV18g8xJJ-177" value="&lt;span style=&quot;font-size: 11px; text-align: left; text-wrap-mode: nowrap;&quot;&gt;name&lt;/span&gt;" style="ellipse;whiteSpace=wrap;html=1;fillColor=light-dark(#CCFF99,var(--ge-dark-color, #121212));" vertex="1" parent="1">
          <mxGeometry x="950" y="237.5" width="90" height="45" as="geometry" />
        </mxCell>
        <mxCell id="KG3uTl3x-kGDV18g8xJJ-185" style="edgeStyle=orthogonalEdgeStyle;rounded=0;orthogonalLoop=1;jettySize=auto;html=1;exitX=1;exitY=0.5;exitDx=0;exitDy=0;entryX=0;entryY=0.5;entryDx=0;entryDy=0;" edge="1" parent="1" source="KG3uTl3x-kGDV18g8xJJ-183" target="KG3uTl3x-kGDV18g8xJJ-167">
          <mxGeometry relative="1" as="geometry" />
        </mxCell>
        <mxCell id="KG3uTl3x-kGDV18g8xJJ-183" value="issued to" style="rhombus;whiteSpace=wrap;html=1;fillColor=light-dark(#9933FF,var(--ge-dark-color, #121212));" vertex="1" parent="1">
          <mxGeometry x="655" y="325" width="80" height="80" as="geometry" />
        </mxCell>
        <mxCell id="KG3uTl3x-kGDV18g8xJJ-192" style="edgeStyle=orthogonalEdgeStyle;rounded=0;orthogonalLoop=1;jettySize=auto;html=1;exitX=0.5;exitY=1;exitDx=0;exitDy=0;entryX=0.5;entryY=0;entryDx=0;entryDy=0;" edge="1" parent="1" source="KG3uTl3x-kGDV18g8xJJ-186" target="KG3uTl3x-kGDV18g8xJJ-173">
          <mxGeometry relative="1" as="geometry" />
        </mxCell>
        <mxCell id="KG3uTl3x-kGDV18g8xJJ-193" style="edgeStyle=orthogonalEdgeStyle;rounded=0;orthogonalLoop=1;jettySize=auto;html=1;entryX=0.5;entryY=0;entryDx=0;entryDy=0;" edge="1" parent="1" source="KG3uTl3x-kGDV18g8xJJ-186" target="KG3uTl3x-kGDV18g8xJJ-169">
          <mxGeometry relative="1" as="geometry" />
        </mxCell>
        <mxCell id="KG3uTl3x-kGDV18g8xJJ-194" style="edgeStyle=orthogonalEdgeStyle;rounded=0;orthogonalLoop=1;jettySize=auto;html=1;exitX=0.5;exitY=0;exitDx=0;exitDy=0;entryX=0.5;entryY=1;entryDx=0;entryDy=0;" edge="1" parent="1" source="KG3uTl3x-kGDV18g8xJJ-186" target="KG3uTl3x-kGDV18g8xJJ-170">
          <mxGeometry relative="1" as="geometry" />
        </mxCell>
        <mxCell id="KG3uTl3x-kGDV18g8xJJ-196" style="edgeStyle=orthogonalEdgeStyle;rounded=0;orthogonalLoop=1;jettySize=auto;html=1;exitX=0;exitY=0.5;exitDx=0;exitDy=0;entryX=1;entryY=0.5;entryDx=0;entryDy=0;" edge="1" parent="1" source="KG3uTl3x-kGDV18g8xJJ-186" target="KG3uTl3x-kGDV18g8xJJ-172">
          <mxGeometry relative="1" as="geometry" />
        </mxCell>
        <mxCell id="KG3uTl3x-kGDV18g8xJJ-227" style="edgeStyle=orthogonalEdgeStyle;rounded=0;orthogonalLoop=1;jettySize=auto;html=1;exitX=1;exitY=0.75;exitDx=0;exitDy=0;" edge="1" parent="1" source="KG3uTl3x-kGDV18g8xJJ-186" target="KG3uTl3x-kGDV18g8xJJ-171">
          <mxGeometry relative="1" as="geometry" />
        </mxCell>
        <mxCell id="KG3uTl3x-kGDV18g8xJJ-228" style="edgeStyle=orthogonalEdgeStyle;rounded=0;orthogonalLoop=1;jettySize=auto;html=1;exitX=0;exitY=0.5;exitDx=0;exitDy=0;entryX=1;entryY=0.5;entryDx=0;entryDy=0;" edge="1" parent="1" source="KG3uTl3x-kGDV18g8xJJ-186" target="KG3uTl3x-kGDV18g8xJJ-203">
          <mxGeometry relative="1" as="geometry" />
        </mxCell>
        <mxCell id="KG3uTl3x-kGDV18g8xJJ-186" value="&lt;span style=&quot;font-weight: 700; text-wrap-mode: nowrap;&quot;&gt;ammunition&lt;/span&gt;" style="rounded=0;whiteSpace=wrap;html=1;fillColor=light-dark(#9999FF,var(--ge-dark-color, #121212));" vertex="1" parent="1">
          <mxGeometry x="552.5" y="544" width="120" height="60" as="geometry" />
        </mxCell>
        <mxCell id="KG3uTl3x-kGDV18g8xJJ-187" value="uses" style="rhombus;whiteSpace=wrap;html=1;fillColor=light-dark(#9933FF,var(--ge-dark-color, #121212));" vertex="1" parent="1">
          <mxGeometry x="750" y="430" width="80" height="80" as="geometry" />
        </mxCell>
        <mxCell id="KG3uTl3x-kGDV18g8xJJ-191" style="edgeStyle=orthogonalEdgeStyle;rounded=0;orthogonalLoop=1;jettySize=auto;html=1;exitX=0.5;exitY=1;exitDx=0;exitDy=0;entryX=1;entryY=0.5;entryDx=0;entryDy=0;" edge="1" parent="1" source="KG3uTl3x-kGDV18g8xJJ-187" target="KG3uTl3x-kGDV18g8xJJ-186">
          <mxGeometry relative="1" as="geometry">
            <mxPoint x="767.5" y="510" as="sourcePoint" />
          </mxGeometry>
        </mxCell>
        <mxCell id="KG3uTl3x-kGDV18g8xJJ-198" value="&lt;span style=&quot;font-size: 11px; text-align: left; text-wrap-mode: nowrap;&quot;&gt;commander in&lt;/span&gt;&lt;div&gt;&lt;span style=&quot;font-size: 11px; text-align: left; text-wrap-mode: nowrap;&quot;&gt;charge&lt;/span&gt;&lt;/div&gt;" style="ellipse;whiteSpace=wrap;html=1;fillColor=light-dark(#99FFFF,var(--ge-dark-color, #121212));" vertex="1" parent="1">
          <mxGeometry x="110" y="519" width="90" height="45" as="geometry" />
        </mxCell>
        <mxCell id="KG3uTl3x-kGDV18g8xJJ-199" value="&lt;span style=&quot;font-size: 11px; text-align: left; text-wrap-mode: nowrap;&quot;&gt;capacity&lt;/span&gt;" style="ellipse;whiteSpace=wrap;html=1;fillColor=light-dark(#99FFFF,var(--ge-dark-color, #121212));" vertex="1" parent="1">
          <mxGeometry x="20" y="450" width="90" height="45" as="geometry" />
        </mxCell>
        <mxCell id="KG3uTl3x-kGDV18g8xJJ-200" value="&lt;span style=&quot;font-size: 11px; text-align: left; text-wrap-mode: nowrap;&quot;&gt;location_name&lt;/span&gt;" style="ellipse;whiteSpace=wrap;html=1;fillColor=light-dark(#99FFFF,var(--ge-dark-color, #121212));" vertex="1" parent="1">
          <mxGeometry x="210" y="325" width="90" height="45" as="geometry" />
        </mxCell>
        <mxCell id="KG3uTl3x-kGDV18g8xJJ-201" value="&lt;span style=&quot;font-size: 11px; text-align: left; text-wrap-mode: nowrap;&quot;&gt;storage_id&lt;/span&gt;" style="ellipse;whiteSpace=wrap;html=1;fillColor=light-dark(#99FFFF,var(--ge-dark-color, #121212));" vertex="1" parent="1">
          <mxGeometry x="230" y="520" width="90" height="45" as="geometry" />
        </mxCell>
        <mxCell id="KG3uTl3x-kGDV18g8xJJ-209" style="edgeStyle=orthogonalEdgeStyle;rounded=0;orthogonalLoop=1;jettySize=auto;html=1;exitX=0;exitY=0.5;exitDx=0;exitDy=0;" edge="1" parent="1" source="KG3uTl3x-kGDV18g8xJJ-202" target="KG3uTl3x-kGDV18g8xJJ-148">
          <mxGeometry relative="1" as="geometry" />
        </mxCell>
        <mxCell id="KG3uTl3x-kGDV18g8xJJ-212" style="edgeStyle=orthogonalEdgeStyle;rounded=0;orthogonalLoop=1;jettySize=auto;html=1;exitX=0.5;exitY=1;exitDx=0;exitDy=0;entryX=0.5;entryY=0;entryDx=0;entryDy=0;" edge="1" parent="1" source="KG3uTl3x-kGDV18g8xJJ-202" target="KG3uTl3x-kGDV18g8xJJ-198">
          <mxGeometry relative="1" as="geometry" />
        </mxCell>
        <mxCell id="KG3uTl3x-kGDV18g8xJJ-213" style="edgeStyle=orthogonalEdgeStyle;rounded=0;orthogonalLoop=1;jettySize=auto;html=1;exitX=0.5;exitY=1;exitDx=0;exitDy=0;entryX=0.5;entryY=0;entryDx=0;entryDy=0;" edge="1" parent="1" source="KG3uTl3x-kGDV18g8xJJ-202" target="KG3uTl3x-kGDV18g8xJJ-201">
          <mxGeometry relative="1" as="geometry" />
        </mxCell>
        <mxCell id="KG3uTl3x-kGDV18g8xJJ-214" style="edgeStyle=orthogonalEdgeStyle;rounded=0;orthogonalLoop=1;jettySize=auto;html=1;exitX=0.5;exitY=0;exitDx=0;exitDy=0;entryX=0.5;entryY=1;entryDx=0;entryDy=0;" edge="1" parent="1" source="KG3uTl3x-kGDV18g8xJJ-202" target="KG3uTl3x-kGDV18g8xJJ-200">
          <mxGeometry relative="1" as="geometry" />
        </mxCell>
        <mxCell id="KG3uTl3x-kGDV18g8xJJ-202" value="&lt;span style=&quot;font-weight: 700; text-wrap-mode: nowrap;&quot;&gt;storage_locations&lt;/span&gt;" style="rounded=0;whiteSpace=wrap;html=1;fillColor=light-dark(#99FFFF,var(--ge-dark-color, #121212));" vertex="1" parent="1">
          <mxGeometry x="180" y="406.5" width="120" height="60" as="geometry" />
        </mxCell>
        <mxCell id="KG3uTl3x-kGDV18g8xJJ-205" style="edgeStyle=orthogonalEdgeStyle;rounded=0;orthogonalLoop=1;jettySize=auto;html=1;exitX=0;exitY=0.5;exitDx=0;exitDy=0;entryX=1;entryY=0.5;entryDx=0;entryDy=0;" edge="1" parent="1" source="KG3uTl3x-kGDV18g8xJJ-203" target="KG3uTl3x-kGDV18g8xJJ-202">
          <mxGeometry relative="1" as="geometry">
            <Array as="points">
              <mxPoint x="405" y="490" />
              <mxPoint x="380" y="490" />
              <mxPoint x="380" y="436" />
            </Array>
          </mxGeometry>
        </mxCell>
        <mxCell id="KG3uTl3x-kGDV18g8xJJ-203" value="stored in" style="rhombus;whiteSpace=wrap;html=1;fillColor=light-dark(#9933FF,var(--ge-dark-color, #121212));" vertex="1" parent="1">
          <mxGeometry x="382.5" y="446.5" width="80" height="80" as="geometry" />
        </mxCell>
        <mxCell id="KG3uTl3x-kGDV18g8xJJ-243" style="edgeStyle=orthogonalEdgeStyle;rounded=0;orthogonalLoop=1;jettySize=auto;html=1;exitX=0.5;exitY=1;exitDx=0;exitDy=0;entryX=1;entryY=0.5;entryDx=0;entryDy=0;" edge="1" parent="1" source="KG3uTl3x-kGDV18g8xJJ-206" target="KG3uTl3x-kGDV18g8xJJ-202">
          <mxGeometry relative="1" as="geometry" />
        </mxCell>
        <mxCell id="KG3uTl3x-kGDV18g8xJJ-206" value="stored in" style="rhombus;whiteSpace=wrap;html=1;fillColor=light-dark(#9933FF,var(--ge-dark-color, #121212));" vertex="1" parent="1">
          <mxGeometry x="340" y="325" width="80" height="80" as="geometry" />
        </mxCell>
        <mxCell id="KG3uTl3x-kGDV18g8xJJ-244" style="edgeStyle=orthogonalEdgeStyle;rounded=0;orthogonalLoop=1;jettySize=auto;html=1;exitX=0;exitY=0.5;exitDx=0;exitDy=0;entryX=0.619;entryY=0.028;entryDx=0;entryDy=0;entryPerimeter=0;" edge="1" parent="1" source="KG3uTl3x-kGDV18g8xJJ-202" target="KG3uTl3x-kGDV18g8xJJ-199">
          <mxGeometry relative="1" as="geometry">
            <Array as="points">
              <mxPoint x="76" y="436" />
            </Array>
          </mxGeometry>
        </mxCell>
      </root>
    </mxGraphModel>
  </diagram>
</mxfile>
